<?xml version="1.0" standalone="no"?>
<!DOCTYPE svg PUBLIC "-//W3C//DTD SVG 20010904//EN"
 "http://www.w3.org/TR/2001/REC-SVG-20010904/DTD/svg10.dtd">
<svg version="1.0" xmlns="http://www.w3.org/2000/svg"
 width="500.000000pt" height="500.000000pt" viewBox="0 0 500.000000 500.000000"
 preserveAspectRatio="xMidYMid meet">

<g transform="translate(0.000000,500.000000) scale(0.100000,-0.100000)"
fill="#000000" stroke="none">
<path d="M0 2500 l0 -2500 2500 0 2500 0 0 2500 0 2500 -2500 0 -2500 0 0
-2500z m3795 2270 c-3 -5 -11 -10 -16 -10 -6 0 -7 5 -4 10 3 6 11 10 16 10 6
0 7 -4 4 -10z m1165 0 c0 -5 -5 -10 -11 -10 -5 0 -7 5 -4 10 3 6 8 10 11 10 2
0 4 -4 4 -10z m-1330 -40 c0 -5 -2 -10 -4 -10 -3 0 -8 5 -11 10 -3 6 -1 10 4
10 6 0 11 -4 11 -10z m-1158 -781 c50 -13 72 -54 74 -139 0 -36 3 -71 5 -79 7
-25 -29 -23 -64 3 -37 28 -70 32 -130 15 -25 -7 -41 -18 -47 -33 -13 -35 -57
-40 -85 -10 -16 17 -33 24 -58 24 -31 0 -38 4 -43 26 -9 35 3 113 22 141 15
24 43 39 99 53 45 12 185 11 227 -1z m228 -358 c0 -42 -31 -91 -57 -91 -12 0
-14 8 -10 35 3 19 1 37 -4 40 -5 4 -9 13 -9 22 0 14 3 14 20 -2 20 -18 25 -11
14 19 -3 9 -12 16 -20 16 -22 0 -16 36 8 52 21 14 23 13 40 -19 10 -18 18 -50
18 -72z m-540 69 c-19 -13 -30 -13 -30 0 0 6 10 10 23 10 18 0 19 -2 7 -10z
m422 -85 c-4 -117 -30 -174 -78 -166 -6 0 -29 -20 -50 -45 -48 -57 -99 -84
-158 -84 -39 0 -48 4 -63 28 -9 15 -31 41 -48 58 -55 55 -88 231 -47 252 28
15 92 3 92 -17 0 -26 -22 -50 -55 -61 l-30 -9 35 2 c32 2 37 7 63 60 23 50 30
57 42 47 8 -7 15 -19 15 -27 0 -8 14 -28 31 -44 35 -32 33 -42 -9 -44 -102 -4
-101 -4 -98 -28 1 -13 5 -28 9 -34 4 -6 0 -13 -8 -17 -8 -3 -17 -1 -20 4 -9
14 -35 12 -35 -3 0 -7 12 -24 28 -37 15 -14 41 -42 59 -63 27 -34 34 -37 51
-28 30 16 142 125 142 138 0 13 -53 25 -60 13 -8 -13 -130 -24 -130 -11 0 7
20 11 50 11 45 0 50 2 47 22 -1 15 9 29 32 45 l34 23 -30 0 c-34 0 -49 14 -55
50 -3 22 1 25 47 32 67 11 95 3 96 -25 1 -20 1 -20 10 4 11 29 43 49 74 46 19
-2 20 -8 17 -92z m2295 19 c-3 -3 -12 -4 -19 -1 -8 3 -5 6 6 6 11 1 17 -2 13
-5z m-2533 -175 c2 -2 0 -14 -5 -26 -6 -18 -16 -23 -44 -23 -30 0 -35 3 -35
24 0 13 6 26 13 29 14 5 65 3 71 -4z m254 -156 c1 -50 -2 -61 -25 -85 -15 -16
-34 -28 -42 -28 -22 -1 -53 -26 -50 -42 4 -34 -6 -51 -67 -112 -36 -36 -67
-66 -68 -66 -1 0 -22 10 -46 21 l-44 21 26 14 c14 7 29 25 32 38 3 14 15 30
26 36 21 11 28 40 10 40 -5 0 -10 7 -10 14 0 10 19 19 58 26 50 10 61 17 87
53 26 37 104 127 110 127 1 0 2 -26 3 -57z m-178 -732 c0 -11 -4 -23 -10 -26
-6 -4 -10 5 -10 19 0 14 5 26 10 26 6 0 10 -9 10 -19z m1910 5 c0 -3 -4 -8
-10 -11 -5 -3 -10 -1 -10 4 0 6 5 11 10 11 6 0 10 -2 10 -4z m-445 -16 c3 -5
-1 -10 -10 -10 -9 0 -13 5 -10 10 3 6 8 10 10 10 2 0 7 -4 10 -10z m-1893
-311 c-2 -19 -7 -50 -12 -69 -4 -19 -11 -78 -15 -130 -4 -52 -12 -101 -18
-109 -7 -8 -17 -32 -23 -55 -40 -143 -54 -198 -64 -255 -6 -35 -15 -71 -20
-80 -5 -9 -11 -28 -14 -43 -3 -14 -18 -40 -32 -58 -24 -27 -26 -36 -20 -80 6
-46 5 -50 -14 -50 -17 0 -20 7 -22 43 -3 93 5 157 32 272 16 66 38 176 49 245
11 69 39 185 61 258 22 74 40 142 40 151 0 29 11 32 44 13 27 -16 31 -23 28
-53z m1055 -104 c42 -12 52 -20 56 -42 3 -15 1 -38 -4 -51 -5 -13 -9 -34 -9
-47 0 -27 -26 -45 -63 -45 -32 0 -43 -26 -17 -40 11 -6 20 -21 20 -34 0 -35
-29 -86 -49 -86 -18 0 -54 -76 -65 -138 -3 -19 -17 -47 -31 -64 -14 -16 -25
-37 -25 -46 0 -10 -9 -23 -21 -30 -14 -9 -19 -20 -16 -33 5 -20 -10 -90 -22
-99 -3 -3 -23 -31 -45 -62 -21 -32 -69 -87 -107 -123 -63 -59 -73 -65 -112
-65 -60 0 -110 16 -136 44 -30 32 -24 58 17 68 27 7 44 26 96 106 77 118 108
178 176 347 29 71 73 164 97 207 43 73 45 81 39 128 -4 28 -9 57 -12 64 -8 21
32 39 106 46 36 4 68 8 71 9 3 0 28 -6 56 -14z"/>
</g>
</svg>
