<?xml version="1.0" standalone="no"?>
<!DOCTYPE svg PUBLIC "-//W3C//DTD SVG 20010904//EN"
 "http://www.w3.org/TR/2001/REC-SVG-20010904/DTD/svg10.dtd">
<svg version="1.0" xmlns="http://www.w3.org/2000/svg"
 width="1920.000000pt" height="1080.000000pt" viewBox="0 0 1920.000000 1080.000000"
 preserveAspectRatio="xMidYMid meet">

<g transform="translate(0.000000,1080.000000) scale(0.100000,-0.100000)"
fill="#000000" stroke="none">
<path d="M4144 9490 c-112 -16 -221 -95 -271 -199 l-27 -56 -7 -665 c-4 -366
-13 -2018 -19 -3671 -12 -2778 -12 -3009 3 -3054 22 -64 61 -129 93 -154 24
-19 40 -20 652 -21 345 0 680 -3 746 -5 65 -3 123 -2 129 2 10 6 103 6 470 -3
109 -2 203 -1 208 2 6 3 81 5 167 4 86 -2 234 -3 327 -3 555 0 937 0 985 1 42
1 3099 0 3355 0 28 -1 218 0 423 1 205 1 376 0 380 -1 4 -2 23 -3 42 -2 36 1
480 2 785 1 94 0 245 1 336 3 92 1 171 0 177 -4 6 -3 107 -4 224 -2 117 3 265
5 328 5 63 -1 174 -1 245 -1 72 0 404 0 740 1 678 2 631 -3 683 73 64 96 63
81 63 674 -1 936 -22 5593 -29 6219 l-7 600 -29 60 c-53 107 -153 178 -277
195 -76 10 -10821 10 -10895 0z m10721 -3885 l0 -3280 -5267 -3 -5268 -2 0
3285 0 3285 5268 -2 5267 -3 0 -3280z"/>
<path d="M9815 8399 c-9 -14 16 -41 81 -85 l55 -38 -67 -33 c-97 -47 -174
-108 -174 -137 0 -27 29 -56 56 -56 32 0 284 176 284 199 0 12 -74 71 -151
119 -72 46 -75 47 -84 31z"/>
<path d="M9431 8350 c-99 -68 -191 -140 -191 -148 1 -11 99 -88 163 -128 43
-27 61 -34 70 -25 14 14 -30 62 -92 98 l-44 25 69 37 c132 70 174 103 174 137
0 29 -25 54 -54 54 -12 0 -55 -22 -95 -50z"/>
<path d="M4690 6515 l0 -225 40 0 39 0 3 103 3 102 28 3 27 3 0 -105 0 -106
40 0 40 0 0 225 0 225 -40 0 -39 0 -3 -82 c-3 -81 -4 -83 -28 -83 -24 0 -25 2
-28 83 l-3 82 -39 0 -40 0 0 -225z"/>
<path d="M5455 6603 c8 -170 10 -183 35 -183 23 0 27 19 35 193 l7 127 -42 0
-41 0 6 -137z"/>
<path d="M5690 6515 l0 -225 40 0 40 0 0 225 0 225 -40 0 -40 0 0 -225z"/>
<path d="M5815 6683 c10 -87 15 -103 35 -103 14 0 19 14 26 80 l10 80 -39 0
-39 0 7 -57z"/>
<path d="M6450 6515 l0 -225 35 0 35 0 1 163 c1 181 6 178 40 -29 l22 -134 37
0 36 0 24 155 c13 86 27 158 32 161 4 3 8 -67 8 -155 l0 -161 35 0 35 0 0 225
0 225 -65 0 -64 0 -5 -32 c-3 -18 -10 -69 -16 -113 -12 -94 -19 -129 -25 -123
-2 2 -12 63 -21 136 l-18 132 -63 0 -63 0 0 -225z"/>
<path d="M8660 6515 l0 -225 40 0 40 0 0 105 0 105 45 0 45 0 0 40 0 40 -45 0
-45 0 0 40 0 40 45 0 45 0 0 40 0 40 -85 0 -85 0 0 -225z"/>
<path d="M9130 6515 l0 -225 40 0 40 0 0 225 0 225 -40 0 -40 0 0 -225z"/>
<path d="M9260 6515 l0 -225 40 0 40 0 0 225 0 225 -40 0 -40 0 0 -225z"/>
<path d="M9540 6712 c-26 -26 -30 -38 -30 -81 0 -49 3 -55 59 -115 61 -65 82
-115 61 -141 -18 -22 -40 -6 -46 36 -6 36 -9 39 -40 39 l-34 0 0 -49 c0 -37 6
-56 23 -76 42 -48 141 -43 165 10 38 83 22 144 -59 228 -61 62 -67 75 -48 94
16 16 39 5 39 -18 0 -15 7 -19 40 -19 38 0 40 2 40 29 0 47 -37 82 -92 88 -42
5 -50 3 -78 -25z"/>
<path d="M9770 6695 c0 -25 -4 -45 -10 -45 -5 0 -10 -13 -10 -30 0 -16 5 -30
10 -30 6 0 10 -51 10 -134 0 -154 6 -169 69 -164 31 3 36 7 39 31 2 19 -1 27
-12 27 -14 0 -16 18 -16 120 0 100 3 120 15 120 10 0 15 10 15 30 0 20 -5 30
-15 30 -11 0 -15 12 -15 45 l0 45 -40 0 -40 0 0 -45z"/>
<path d="M10430 6515 l0 -225 40 0 40 0 1 93 1 92 31 -92 31 -93 44 0 c31 0
43 4 40 13 -3 6 -20 56 -38 110 l-32 98 26 72 c14 40 26 76 26 80 0 5 -19 7
-42 5 -41 -3 -41 -3 -64 -68 l-22 -65 -1 103 -1 102 -40 0 -40 0 0 -225z"/>
<path d="M11430 6515 l0 -225 40 0 c34 0 40 3 40 22 l0 21 23 -21 c31 -29 58
-28 88 4 23 25 24 31 24 163 0 114 -3 141 -18 164 -19 29 -61 36 -98 17 -17
-10 -19 -7 -19 35 l0 45 -40 0 -40 0 0 -225z m128 -29 c3 -123 -4 -150 -33
-126 -12 10 -15 36 -15 125 0 61 3 115 7 119 4 4 14 5 23 4 12 -3 15 -24 18
-122z"/>
<path d="M11940 6693 c0 -37 -3 -44 -12 -35 -13 13 -67 16 -84 4 -27 -18 -34
-56 -34 -182 0 -157 12 -189 68 -190 12 0 31 9 42 20 l20 20 0 -20 c0 -17 7
-20 45 -20 l45 0 0 225 0 225 -45 0 -45 0 0 -47z m-2 -207 c3 -123 -4 -150
-33 -126 -12 10 -15 36 -15 125 0 61 3 115 7 119 4 4 14 5 23 4 12 -3 15 -24
18 -122z"/>
<path d="M12830 6515 l0 -225 40 0 40 0 0 225 0 225 -40 0 -40 0 0 -225z"/>
<path d="M14410 6695 c0 -33 -4 -45 -15 -45 -10 0 -15 -10 -15 -30 0 -20 5
-30 15 -30 13 0 15 -22 15 -140 0 -154 2 -160 69 -160 28 0 31 3 31 30 0 17
-4 30 -10 30 -6 0 -10 47 -10 120 0 73 4 120 10 120 6 0 10 14 10 30 0 17 -4
30 -10 30 -5 0 -10 20 -10 45 l0 45 -40 0 -40 0 0 -45z"/>
<path d="M4997 6659 c-35 -20 -47 -64 -47 -166 0 -124 12 -168 50 -188 84 -43
170 8 170 101 0 21 -5 24 -40 24 -37 0 -40 -2 -40 -29 0 -33 -25 -60 -41 -44
-6 6 -12 35 -13 65 l-1 53 69 3 68 3 -4 71 c-3 62 -7 73 -31 94 -21 18 -40 24
-75 24 -26 0 -55 -5 -65 -11z m89 -73 c10 -42 1 -71 -24 -74 -27 -4 -36 16
-28 63 8 42 42 50 52 11z"/>
<path d="M5201 6653 c0 -10 13 -94 28 -188 15 -93 26 -173 24 -177 -2 -5 -15
-8 -29 -8 -19 0 -24 -5 -24 -25 0 -24 2 -25 65 -25 58 0 66 2 75 23 5 12 23
103 40 202 17 99 33 188 36 198 4 14 -1 17 -34 17 -46 0 -43 9 -62 -174 -6
-55 -12 -101 -14 -103 -5 -5 -14 74 -22 185 l-7 92 -38 0 c-31 0 -39 -4 -38
-17z"/>
<path d="M5930 6480 l0 -190 40 0 39 0 3 158 c3 149 4 157 23 157 19 0 20 -8
23 -157 l3 -158 39 0 40 0 0 144 c0 158 3 176 31 176 18 0 19 -10 19 -160 l0
-160 46 0 45 0 -3 169 c-3 149 -5 171 -22 190 -23 25 -78 28 -101 5 -15 -15
-17 -15 -34 0 -26 24 -77 21 -95 -6 l-16 -22 0 22 c0 19 -5 22 -40 22 l-40 0
0 -190z"/>
<path d="M6866 6649 c-17 -14 -26 -30 -26 -50 0 -27 2 -29 40 -29 33 0 40 3
40 20 0 13 7 20 20 20 17 0 20 -7 20 -39 0 -38 -1 -40 -50 -56 -59 -20 -80
-51 -80 -117 0 -47 16 -85 41 -101 23 -15 68 0 79 26 8 21 9 21 9 -5 1 -26 4
-28 47 -28 l45 0 -3 166 -3 166 -28 24 c-37 32 -112 34 -151 3z m84 -293 c-8
-8 -15 -6 -26 9 -21 27 -13 104 12 122 18 13 19 10 22 -53 2 -40 -2 -71 -8
-78z"/>
<path d="M7090 6480 l0 -190 40 0 39 0 3 152 3 152 33 8 c27 7 32 13 32 38 0
36 -15 38 -47 8 l-23 -21 0 21 c0 19 -6 22 -40 22 l-40 0 0 -190z"/>
<path d="M7303 6646 l-28 -24 0 -141 c0 -161 7 -178 83 -188 80 -11 132 37
132 121 0 36 0 36 -45 36 l-45 0 0 -44 c0 -49 -13 -65 -36 -45 -12 10 -14 35
-12 128 3 108 4 116 23 116 16 0 21 -8 23 -37 3 -38 3 -38 49 -38 l46 0 -6 47
c-7 64 -40 93 -107 93 -37 0 -56 -6 -77 -24z"/>
<path d="M7530 6500 c0 -157 2 -172 20 -190 26 -26 64 -25 90 2 l20 22 0 -22
c0 -19 6 -22 40 -22 l40 0 0 190 0 190 -40 0 -39 0 -3 -157 c-3 -150 -4 -158
-23 -158 -19 0 -20 8 -23 158 l-3 157 -39 0 -40 0 0 -170z"/>
<path d="M7817 6650 c-57 -45 -43 -115 37 -177 54 -42 71 -76 54 -107 -14 -26
-38 -7 -38 30 0 34 -1 34 -45 34 -41 0 -45 -2 -45 -24 0 -93 86 -144 170 -101
36 19 50 43 50 90 0 52 -22 87 -80 129 -37 27 -50 42 -50 61 0 18 5 25 20 25
15 0 20 -7 20 -25 0 -23 4 -25 45 -25 42 0 45 2 45 26 0 15 -12 38 -29 55 -25
24 -38 29 -79 29 -34 0 -57 -6 -75 -20z"/>
<path d="M8323 6658 c-19 -9 -43 -54 -43 -79 0 -5 17 -9 39 -9 31 0 40 4 44
21 9 35 41 20 45 -22 3 -34 1 -36 -39 -48 -66 -20 -89 -50 -89 -116 0 -55 12
-93 34 -107 22 -15 55 -7 75 18 l21 27 0 -27 c0 -24 3 -26 40 -26 l40 0 0 165
c0 163 0 166 -25 190 -19 20 -34 25 -72 24 -26 0 -58 -5 -70 -11z m78 -301
c-19 -19 -41 13 -41 59 0 32 6 50 23 67 l22 22 3 -69 c2 -38 -2 -74 -7 -79z"/>
<path d="M8872 6494 c3 -160 5 -177 22 -190 30 -21 72 -17 90 8 l16 22 0 -22
c0 -19 5 -22 45 -22 l45 0 0 190 0 190 -45 0 -45 0 0 -154 c0 -156 -6 -180
-35 -156 -12 10 -15 43 -15 161 l0 149 -41 0 -40 0 3 -176z"/>
<path d="M9953 6658 c-19 -9 -43 -54 -43 -79 0 -5 17 -9 39 -9 31 0 40 4 44
21 9 35 41 20 45 -22 3 -34 1 -36 -39 -48 -66 -20 -89 -50 -89 -116 0 -55 12
-93 34 -107 22 -15 55 -7 75 18 l21 27 0 -27 c0 -24 3 -26 40 -26 l40 0 0 165
c0 163 0 166 -25 190 -19 20 -34 25 -72 24 -26 0 -58 -5 -70 -11z m78 -301
c-19 -19 -41 13 -41 59 0 32 6 50 23 67 l22 22 3 -69 c2 -38 -2 -74 -7 -79z"/>
<path d="M10209 6657 c-25 -19 -36 -48 -44 -115 -11 -95 2 -187 30 -220 20
-23 31 -27 78 -27 78 0 107 28 107 102 l0 53 -40 0 -40 0 0 -44 c0 -27 -5 -46
-13 -49 -32 -12 -38 8 -35 129 3 111 4 119 23 119 16 0 21 -8 23 -37 3 -37 4
-38 43 -38 39 0 39 0 39 39 0 53 -8 69 -41 86 -34 18 -108 19 -130 2z"/>
<path d="M10807 6613 c3 -32 13 -116 22 -188 l16 -130 46 -3 46 -3 6 48 c4 26
9 77 13 113 8 75 18 60 28 -45 12 -114 13 -115 57 -115 35 0 39 2 44 33 5 30
45 335 45 343 0 2 -18 4 -39 4 l-39 0 -7 -82 c-12 -130 -21 -135 -35 -20 l-12
102 -38 0 -38 0 -7 -95 c-4 -52 -11 -97 -15 -100 -4 -3 -11 23 -14 58 -15 139
-15 137 -52 137 l-34 0 7 -57z"/>
<path d="M11198 6640 l-30 -30 4 -135 c3 -124 5 -136 26 -157 18 -18 34 -23
78 -23 49 0 59 4 80 28 17 19 24 40 24 68 0 39 0 39 -39 39 -39 0 -40 -1 -43
-37 -2 -30 -7 -38 -23 -38 -18 0 -20 8 -23 63 l-3 62 66 0 65 0 0 70 c0 62 -3
74 -25 95 -19 20 -34 25 -75 25 -44 0 -56 -4 -82 -30z m100 -83 c3 -45 2 -47
-22 -47 -24 0 -26 4 -26 43 0 48 6 59 30 55 10 -2 16 -17 18 -51z"/>
<path d="M12099 6641 c-29 -29 -29 -31 -29 -146 0 -131 13 -179 55 -195 71
-27 136 2 155 68 16 59 14 62 -35 62 -45 0 -45 0 -45 -34 0 -39 -14 -53 -35
-36 -10 8 -15 31 -15 66 l0 54 71 0 72 0 -5 72 c-7 92 -31 118 -109 118 -42 0
-55 -5 -80 -29z m101 -82 c0 -47 -2 -50 -22 -47 -39 5 -37 98 2 98 17 0 20 -7
20 -51z"/>
<path d="M12320 6653 c0 -10 13 -94 28 -188 l28 -170 49 0 50 0 27 165 c36
220 37 210 -11 210 l-38 0 -14 -127 c-14 -139 -16 -137 -33 50 l-8 77 -39 0
c-31 0 -39 -4 -39 -17z"/>
<path d="M12598 6640 l-30 -30 4 -135 c3 -124 5 -136 26 -157 18 -18 34 -23
78 -23 49 0 59 4 80 28 17 19 24 40 24 68 0 39 0 39 -39 39 -39 0 -40 -1 -43
-37 -2 -30 -7 -38 -23 -38 -18 0 -20 8 -23 63 l-3 62 66 0 65 0 0 70 c0 62 -3
74 -25 95 -19 20 -34 25 -75 25 -44 0 -56 -4 -82 -30z m100 -83 c3 -45 2 -47
-22 -47 -24 0 -26 4 -26 43 0 48 6 59 30 55 10 -2 16 -17 18 -51z"/>
<path d="M12988 6641 l-33 -29 -3 -115 c-4 -133 9 -177 59 -197 44 -19 109 -7
136 25 21 24 23 36 23 156 l0 131 -29 29 c-42 41 -107 41 -153 0z m100 -151
c2 -119 -4 -147 -32 -137 -13 5 -16 25 -16 125 0 65 3 122 7 126 4 4 14 5 23
4 12 -3 15 -24 18 -118z"/>
<path d="M13220 6445 l0 -225 40 0 40 0 0 45 c0 42 2 45 19 35 34 -18 68 -12
90 16 19 24 21 40 21 168 0 112 -3 146 -16 164 -17 24 -61 30 -95 12 -13 -7
-19 -7 -19 0 0 5 -18 10 -40 10 l-40 0 0 -225z m125 35 c0 -118 -1 -125 -20
-125 -19 0 -20 8 -23 114 -3 127 0 144 25 139 16 -3 18 -17 18 -128z"/>
<path d="M13480 6480 l0 -190 40 0 39 0 3 158 c3 149 4 157 23 157 19 0 20 -8
23 -157 l3 -158 39 0 40 0 0 138 c0 155 5 182 30 182 27 0 30 -19 30 -176 l0
-144 40 0 40 0 0 161 c0 193 -9 219 -74 219 -16 0 -38 -7 -48 -17 -17 -15 -19
-15 -36 0 -27 25 -78 22 -96 -5 l-16 -22 0 22 c0 19 -5 22 -40 22 l-40 0 0
-190z"/>
<path d="M13917 6659 c-35 -20 -47 -64 -47 -166 0 -124 12 -168 50 -188 84
-43 170 8 170 101 0 21 -5 24 -40 24 -37 0 -40 -2 -40 -29 0 -33 -25 -60 -41
-44 -6 6 -12 35 -13 65 l-1 53 69 3 68 3 -4 71 c-3 62 -7 73 -31 94 -21 18
-40 24 -75 24 -26 0 -55 -5 -65 -11z m89 -73 c10 -42 1 -71 -24 -74 -27 -4
-36 16 -28 63 8 42 42 50 52 11z"/>
<path d="M14130 6480 l0 -190 40 0 40 0 0 138 c0 155 5 182 30 182 25 0 30
-27 30 -182 l0 -138 41 0 40 0 -3 169 c-3 149 -5 171 -22 190 -27 30 -70 27
-95 -6 l-20 -28 -1 28 c0 25 -3 27 -40 27 l-40 0 0 -190z"/>
<path d="M5450 6325 c0 -34 1 -35 40 -35 39 0 40 1 40 35 0 34 -1 35 -40 35
-39 0 -40 -1 -40 -35z"/>
<path d="M8030 6325 c0 -28 4 -35 20 -35 17 0 18 -3 10 -26 -13 -34 -13 -34
13 -34 26 0 47 44 47 98 0 31 -1 32 -45 32 -45 0 -45 0 -45 -35z"/>
<path d="M9510 6000 c0 -28 2 -30 40 -30 38 0 40 2 40 30 0 28 -2 30 -40 30
-38 0 -40 -2 -40 -30z"/>
<path d="M13770 6000 c0 -28 2 -30 40 -30 38 0 40 2 40 30 0 28 -2 30 -40 30
-38 0 -40 -2 -40 -30z"/>
<path d="M5090 5970 c0 -27 -5 -43 -15 -46 -9 -4 -15 -19 -15 -35 0 -19 5 -29
15 -29 13 0 15 -22 15 -138 0 -94 4 -142 12 -150 7 -7 29 -12 50 -12 36 0 38
2 38 30 0 17 -4 30 -10 30 -6 0 -10 47 -10 120 0 73 4 120 10 120 6 0 10 14
10 30 0 17 -4 30 -10 30 -5 0 -10 20 -10 45 l0 45 -40 0 -40 0 0 -40z"/>
<path d="M5620 5963 c0 -37 -3 -44 -12 -35 -13 13 -67 16 -84 4 -27 -18 -34
-56 -34 -182 0 -157 12 -189 68 -190 12 0 31 9 42 20 l20 20 0 -20 c0 -17 7
-20 45 -20 l45 0 0 225 0 225 -45 0 -45 0 0 -47z m-2 -207 c3 -123 -4 -150
-33 -126 -12 10 -15 36 -15 125 0 61 3 115 7 119 4 4 14 5 23 4 12 -3 15 -24
18 -122z"/>
<path d="M6290 5970 c0 -27 -5 -43 -15 -46 -9 -4 -15 -19 -15 -35 0 -19 5 -29
15 -29 13 0 15 -22 15 -138 0 -94 4 -142 12 -150 7 -7 29 -12 50 -12 36 0 38
2 38 30 0 17 -4 30 -10 30 -6 0 -10 47 -10 120 0 73 4 120 10 120 6 0 10 14
10 30 0 17 -4 30 -10 30 -5 0 -10 20 -10 45 l0 45 -40 0 -40 0 0 -40z"/>
<path d="M6670 5785 l0 -225 40 0 40 0 0 225 0 225 -40 0 -40 0 0 -225z"/>
<path d="M6790 5999 c0 -5 5 -41 11 -80 10 -55 16 -69 30 -69 13 0 19 12 24
53 3 28 8 64 11 80 5 26 4 27 -35 27 -23 0 -41 -5 -41 -11z"/>
<path d="M9650 5965 c0 -25 -4 -45 -10 -45 -5 0 -10 -13 -10 -30 0 -16 5 -30
10 -30 6 0 10 -49 10 -128 0 -152 9 -175 68 -170 30 2 38 7 40 27 2 15 -3 28
-12 33 -23 13 -24 238 -1 238 10 0 15 10 15 29 0 16 -6 31 -15 35 -10 3 -15
19 -15 46 l0 40 -40 0 -40 0 0 -45z"/>
<path d="M10190 5965 c0 -42 -11 -58 -25 -35 -3 6 -21 10 -40 10 -25 0 -39 -7
-55 -27 -20 -26 -21 -37 -18 -169 3 -123 6 -145 22 -163 25 -27 72 -28 88 -1
7 11 16 20 20 20 5 0 8 -9 8 -20 0 -17 7 -20 40 -20 l40 0 0 225 0 225 -40 0
-40 0 0 -45z m-4 -131 c9 -62 0 -192 -15 -207 -10 -9 -16 -8 -27 7 -10 14 -14
48 -14 117 0 110 4 129 30 129 15 0 20 -11 26 -46z"/>
<path d="M10450 5965 c0 -25 -4 -45 -10 -45 -5 0 -10 -13 -10 -30 0 -16 5 -30
10 -30 6 0 10 -49 10 -128 0 -152 9 -175 68 -170 30 2 38 7 40 27 2 15 -3 28
-12 33 -23 13 -24 238 -1 238 10 0 15 10 15 29 0 16 -6 31 -15 35 -10 3 -15
19 -15 46 l0 40 -40 0 -40 0 0 -45z"/>
<path d="M11250 5970 c0 -27 -5 -43 -15 -46 -9 -4 -15 -19 -15 -35 0 -19 5
-29 15 -29 13 0 15 -22 15 -138 0 -94 4 -142 12 -150 7 -7 29 -12 50 -12 36 0
38 2 38 30 0 17 -4 30 -10 30 -6 0 -10 47 -10 120 0 73 4 120 10 120 6 0 10
14 10 30 0 17 -4 30 -10 30 -5 0 -10 20 -10 45 l0 45 -40 0 -40 0 0 -40z"/>
<path d="M11840 5965 c0 -33 -4 -45 -15 -45 -10 0 -15 -10 -15 -30 0 -20 5
-30 15 -30 13 0 15 -22 15 -140 0 -154 2 -160 69 -160 28 0 31 3 31 30 0 17
-4 30 -10 30 -6 0 -10 47 -10 120 0 73 4 120 10 120 6 0 10 14 10 30 0 17 -4
30 -10 30 -5 0 -10 20 -10 45 l0 45 -40 0 -40 0 0 -45z"/>
<path d="M12240 5965 c0 -42 -11 -58 -25 -35 -11 18 -71 11 -91 -11 -17 -19
-19 -38 -19 -171 0 -145 1 -150 24 -169 31 -25 59 -24 88 3 l23 21 0 -21 c0
-19 6 -22 40 -22 l40 0 0 225 0 225 -40 0 -40 0 0 -45z m-6 -101 c13 -33 6
-210 -8 -230 -24 -31 -38 -4 -44 80 -6 103 4 166 28 166 10 0 21 -7 24 -16z"/>
<path d="M13120 5785 l0 -225 40 0 40 0 0 225 0 225 -40 0 -40 0 0 -225z"/>
<path d="M4847 5920 c-57 -45 -43 -115 37 -177 54 -42 71 -76 54 -107 -14 -26
-38 -7 -38 30 0 34 -1 34 -45 34 -41 0 -45 -2 -45 -24 0 -93 86 -144 170 -101
36 19 50 43 50 90 0 52 -22 87 -80 129 -37 27 -50 42 -50 61 0 18 5 25 20 25
15 0 20 -7 20 -25 0 -23 4 -25 45 -25 42 0 45 2 45 26 0 15 -12 38 -29 55 -25
24 -38 29 -79 29 -34 0 -57 -6 -75 -20z"/>
<path d="M5232 5764 c3 -160 5 -177 22 -190 30 -21 72 -17 90 8 l16 22 0 -22
c0 -19 5 -22 45 -22 l45 0 0 190 0 190 -45 0 -45 0 0 -154 c0 -156 -6 -180
-35 -156 -12 10 -15 43 -15 161 l0 149 -41 0 -40 0 3 -176z"/>
<path d="M5779 5911 c-29 -29 -29 -31 -29 -146 0 -131 13 -179 55 -195 71 -27
136 2 155 68 16 59 14 62 -35 62 -45 0 -45 0 -45 -34 0 -39 -14 -53 -35 -36
-10 8 -15 31 -15 66 l0 54 71 0 72 0 -5 72 c-7 92 -31 118 -109 118 -42 0 -55
-5 -80 -29z m101 -82 c0 -47 -2 -50 -22 -47 -39 5 -37 98 2 98 17 0 20 -7 20
-51z"/>
<path d="M6010 5750 l0 -190 40 0 39 0 3 158 c3 149 4 157 23 157 19 0 20 -8
23 -157 l3 -158 39 0 40 0 0 173 c0 156 -2 176 -18 190 -30 27 -74 22 -94 -10
l-17 -28 -1 28 c0 25 -3 27 -40 27 l-40 0 0 -190z"/>
<path d="M6910 5750 l0 -190 40 0 39 0 3 158 c3 149 4 157 23 157 19 0 20 -8
23 -157 l3 -158 39 0 40 0 0 144 c0 158 3 176 31 176 18 0 19 -10 19 -160 l0
-160 46 0 45 0 -3 169 c-3 149 -5 171 -22 190 -23 25 -78 28 -101 5 -15 -15
-17 -15 -34 0 -26 24 -77 21 -95 -6 l-16 -22 0 22 c0 19 -5 22 -40 22 l-40 0
0 -190z"/>
<path d="M7465 5928 c-32 -19 -44 -41 -45 -82 0 -36 6 -45 65 -100 49 -46 65
-68 65 -87 0 -30 -21 -44 -39 -26 -6 6 -11 24 -11 39 0 26 -3 28 -40 28 -40 0
-40 0 -40 -39 0 -28 7 -49 24 -68 21 -24 31 -28 79 -28 45 0 60 5 81 24 57 54
40 135 -43 198 -52 40 -70 68 -53 85 16 16 42 2 42 -22 0 -17 6 -20 40 -20 38
0 40 2 40 30 0 49 -38 80 -97 80 -26 0 -57 -6 -68 -12z"/>
<path d="M7671 5769 c4 -165 5 -171 28 -190 31 -25 59 -24 88 3 l23 21 0 -21
c0 -19 6 -22 40 -22 l40 0 0 190 0 190 -40 0 -40 0 0 -149 c0 -118 -3 -151
-15 -161 -29 -24 -35 0 -35 156 l0 154 -46 0 -46 0 3 -171z"/>
<path d="M7940 5715 l0 -225 40 0 40 0 0 44 0 44 28 -10 c37 -14 78 -3 94 25
9 15 13 66 13 157 0 159 -11 190 -68 190 -18 0 -39 -6 -46 -12 -11 -10 -14
-10 -18 0 -3 7 -22 12 -44 12 l-39 0 0 -225z m128 41 c3 -123 -4 -150 -33
-126 -12 10 -15 35 -15 115 0 115 5 137 29 133 13 -3 16 -22 19 -122z"/>
<path d="M8239 5925 c-15 -8 -30 -22 -33 -32 -13 -33 -19 -140 -11 -208 6 -57
12 -73 36 -98 27 -27 35 -29 80 -25 64 7 89 31 96 92 l6 46 -41 0 c-40 0 -41
-1 -44 -37 -2 -30 -7 -38 -23 -38 -18 0 -20 8 -23 63 l-3 62 66 0 65 0 0 61
c0 95 -26 128 -100 128 -25 0 -57 -6 -71 -14z m89 -98 c3 -45 2 -47 -22 -47
-24 0 -26 4 -26 43 0 48 6 59 30 55 10 -2 16 -17 18 -51z"/>
<path d="M8460 5750 l0 -190 40 0 39 0 3 152 3 152 25 6 c19 4 26 13 28 38 4
39 -19 44 -42 10 l-16 -22 0 22 c0 19 -5 22 -40 22 l-40 0 0 -190z"/>
<path d="M8799 5925 c-15 -8 -30 -22 -33 -32 -13 -33 -19 -140 -11 -208 6 -57
12 -73 36 -98 27 -27 35 -29 80 -25 64 7 89 31 96 92 l6 46 -41 0 c-40 0 -41
-1 -44 -37 -2 -30 -7 -38 -23 -38 -18 0 -20 8 -23 63 l-3 62 66 0 65 0 0 61
c0 95 -26 128 -100 128 -25 0 -57 -6 -71 -14z m89 -98 c3 -45 2 -47 -22 -47
-24 0 -26 4 -26 43 0 48 6 59 30 55 10 -2 16 -17 18 -51z"/>
<path d="M9010 5932 c0 -4 13 -44 29 -87 l28 -79 -33 -100 c-19 -55 -34 -101
-34 -103 0 -2 13 -3 28 -3 25 0 30 6 47 55 10 31 22 52 25 48 4 -4 15 -29 25
-55 17 -46 19 -48 56 -48 22 0 39 2 39 4 0 3 -13 43 -30 89 -16 47 -30 93 -30
102 0 9 13 54 30 101 l29 84 -28 0 c-24 0 -31 -6 -46 -46 -19 -50 -26 -48 -45
9 -11 34 -14 37 -51 37 -21 0 -39 -4 -39 -8z"/>
<path d="M9297 5929 c-33 -19 -47 -72 -47 -177 0 -55 5 -113 11 -131 27 -77
163 -82 197 -6 7 14 12 44 12 65 0 40 0 40 -40 40 -39 0 -40 -1 -40 -33 0 -18
-6 -42 -14 -52 -12 -16 -16 -17 -30 -6 -13 11 -16 34 -16 116 0 116 4 135 30
135 13 0 20 -11 25 -40 7 -39 8 -40 46 -40 39 0 39 0 39 41 0 61 -42 99 -107
99 -26 0 -56 -5 -66 -11z"/>
<path d="M9510 5750 l0 -190 40 0 40 0 0 190 0 190 -40 0 -40 0 0 -190z"/>
<path d="M9839 5925 c-15 -8 -30 -22 -33 -32 -13 -33 -19 -140 -11 -208 6 -57
12 -73 36 -98 27 -27 35 -29 80 -25 64 7 89 31 96 92 l6 46 -41 0 c-40 0 -41
-1 -44 -37 -2 -30 -7 -38 -23 -38 -18 0 -20 8 -23 63 l-3 62 66 0 65 0 0 61
c0 95 -26 128 -100 128 -25 0 -57 -6 -71 -14z m89 -98 c3 -45 2 -47 -22 -47
-24 0 -26 4 -26 43 0 48 6 59 30 55 10 -2 16 -17 18 -51z"/>
<path d="M10630 5912 c-34 -34 -46 -106 -37 -215 9 -109 58 -153 144 -131 52
13 73 47 80 131 14 168 -21 243 -112 243 -38 0 -52 -5 -75 -28z m95 -162 c0
-118 -1 -125 -20 -125 -19 0 -20 8 -23 114 -3 127 0 144 25 139 16 -3 18 -17
18 -128z"/>
<path d="M11007 5920 c-57 -45 -43 -115 37 -177 54 -42 71 -76 54 -107 -14
-26 -38 -7 -38 30 0 34 -1 34 -45 34 -41 0 -45 -2 -45 -24 0 -93 86 -144 170
-101 36 19 50 43 50 90 0 52 -22 87 -80 129 -37 27 -50 42 -50 61 0 18 5 25
20 25 15 0 20 -7 20 -25 0 -23 4 -25 45 -25 42 0 45 2 45 26 0 15 -12 38 -29
55 -25 24 -38 29 -79 29 -34 0 -57 -6 -75 -20z"/>
<path d="M11415 5915 c-14 -13 -25 -36 -25 -50 0 -23 4 -25 40 -25 33 0 40 3
40 20 0 30 38 26 46 -5 9 -37 0 -52 -43 -65 -74 -24 -104 -76 -89 -156 14 -72
77 -98 115 -46 l20 27 1 -27 c0 -26 3 -28 40 -28 l40 0 0 161 0 161 -29 29
c-25 24 -37 29 -81 29 -41 0 -56 -5 -75 -25z m105 -209 c0 -54 -19 -94 -38
-82 -18 11 -15 106 4 127 24 27 34 14 34 -45z"/>
<path d="M11640 5750 l0 -190 45 0 45 0 0 154 0 155 28 3 c22 2 28 8 30 36 4
39 -18 44 -42 10 l-16 -22 0 22 c0 19 -5 22 -45 22 l-45 0 0 -190z"/>
<path d="M12407 5929 c-35 -20 -47 -64 -47 -166 0 -124 12 -168 50 -188 84
-43 170 8 170 101 0 21 -5 24 -40 24 -37 0 -40 -2 -40 -29 0 -33 -25 -60 -41
-44 -6 6 -12 35 -13 65 l-1 53 69 3 68 3 -4 71 c-3 62 -7 73 -31 94 -21 18
-40 24 -75 24 -26 0 -55 -5 -65 -11z m89 -73 c10 -42 1 -71 -24 -74 -27 -4
-36 16 -28 63 8 42 42 50 52 11z"/>
<path d="M12614 5913 c6 -31 56 -338 56 -347 0 -4 23 -6 50 -6 28 0 50 3 50 6
0 5 32 200 55 342 6 32 5 32 -33 32 -47 0 -48 -2 -58 -143 -4 -54 -10 -100
-14 -102 -4 -2 -10 45 -14 106 -4 61 -10 117 -13 125 -3 9 -20 14 -45 14 -38
0 -39 -1 -34 -27z"/>
<path d="M12889 5911 c-29 -29 -29 -31 -29 -146 0 -131 13 -179 55 -195 71
-27 136 2 155 68 16 59 14 62 -35 62 -45 0 -45 0 -45 -34 0 -39 -14 -53 -35
-36 -10 8 -15 31 -15 66 l0 54 71 0 72 0 -5 72 c-7 92 -31 118 -109 118 -42 0
-55 -5 -80 -29z m101 -82 c0 -47 -2 -50 -22 -47 -39 5 -37 98 2 98 17 0 20 -7
20 -51z"/>
<path d="M13279 5911 l-29 -29 0 -131 c0 -121 2 -132 23 -157 18 -20 35 -28
74 -31 45 -5 53 -2 84 25 l34 30 0 132 0 132 -33 29 c-46 41 -111 41 -153 0z
m99 -159 c2 -106 0 -123 -14 -129 -9 -3 -20 0 -25 8 -10 17 -12 232 -2 243 4
4 14 5 23 4 12 -3 15 -25 18 -126z"/>
<path d="M13510 5715 l0 -225 40 0 40 0 0 45 c0 42 11 58 25 35 10 -17 61 -11
86 9 23 19 24 24 24 169 0 133 -2 152 -19 171 -21 24 -74 28 -95 9 -11 -10
-14 -10 -18 0 -3 7 -22 12 -44 12 l-39 0 0 -225z m136 130 c3 -19 4 -72 3
-119 -4 -89 -18 -121 -41 -98 -17 17 -23 188 -9 225 15 38 39 34 47 -8z"/>
<path d="M13770 5750 l0 -190 40 0 40 0 0 190 0 190 -40 0 -40 0 0 -190z"/>
<path d="M13900 5750 l0 -190 40 0 40 0 0 138 c0 155 5 182 30 182 25 0 30
-27 30 -182 l0 -138 41 0 40 0 -3 169 c-3 149 -5 171 -22 190 -27 30 -70 27
-95 -6 l-20 -28 -1 28 c0 25 -3 27 -40 27 l-40 0 0 -190z"/>
<path d="M14194 5932 c-26 -17 -34 -56 -34 -157 0 -137 13 -165 77 -165 20 0
36 6 42 17 13 24 20 14 14 -20 -7 -38 -36 -52 -76 -37 -27 9 -34 8 -44 -7 -19
-25 -16 -32 15 -44 45 -18 139 -6 165 19 21 21 22 32 25 212 l3 190 -39 0
c-33 0 -41 -4 -46 -22 l-6 -23 -15 23 c-16 22 -58 30 -81 14z m96 -78 c11 -29
13 -106 4 -153 -4 -21 -12 -31 -24 -31 -24 0 -30 20 -30 105 0 40 3 80 6 89 9
24 33 19 44 -10z"/>
<path d="M6430 5595 c0 -24 5 -35 14 -35 11 0 13 -7 6 -30 -8 -27 -6 -30 15
-30 26 0 45 40 45 96 0 33 -1 34 -40 34 -39 0 -40 -1 -40 -35z"/>
<path d="M6590 5270 c0 -28 2 -30 40 -30 38 0 40 2 40 30 0 28 -2 30 -40 30
-38 0 -40 -2 -40 -30z"/>
<path d="M8870 5270 c0 -28 2 -30 40 -30 38 0 40 2 40 30 0 28 -2 30 -40 30
-38 0 -40 -2 -40 -30z"/>
<path d="M6730 5235 c0 -25 -4 -45 -10 -45 -5 0 -10 -13 -10 -30 0 -16 5 -30
10 -30 6 0 10 -49 10 -128 0 -152 9 -175 68 -170 30 2 38 7 40 27 2 15 -3 28
-12 33 -23 13 -24 238 -1 238 10 0 15 10 15 29 0 16 -6 31 -15 35 -10 3 -15
19 -15 46 l0 40 -40 0 -40 0 0 -45z"/>
<path d="M6880 5055 l0 -225 40 0 40 0 0 144 c0 157 3 176 30 176 25 0 30 -27
30 -182 l0 -138 41 0 40 0 -3 169 c-3 149 -5 171 -22 190 -23 25 -84 29 -92 6
-12 -31 -24 -13 -24 35 l0 50 -40 0 -40 0 0 -225z"/>
<path d="M7998 5269 c-12 -6 -18 -22 -18 -44 0 -19 -4 -35 -10 -35 -5 0 -10
-13 -10 -30 0 -16 5 -30 10 -30 6 0 10 -57 10 -150 l0 -150 40 0 40 0 0 150
c0 93 4 150 10 150 6 0 10 14 10 30 0 17 -4 30 -10 30 -5 0 -10 9 -10 20 0 11
5 20 11 20 6 0 9 10 7 23 -2 16 -10 23 -33 24 -16 2 -38 -2 -47 -8z"/>
<path d="M9770 5055 l0 -225 40 0 40 0 0 225 0 225 -40 0 -40 0 0 -225z"/>
<path d="M10153 5158 c4 -66 7 -138 7 -160 0 -34 3 -38 24 -38 27 0 25 -9 41
233 l6 87 -42 0 -42 0 6 -122z"/>
<path d="M11190 5240 c0 -27 -5 -43 -15 -46 -9 -4 -15 -19 -15 -35 0 -19 5
-29 15 -29 13 0 15 -22 15 -138 0 -94 4 -142 12 -150 7 -7 29 -12 50 -12 36 0
38 2 38 30 0 17 -4 30 -10 30 -6 0 -10 47 -10 120 0 73 4 120 10 120 6 0 10
14 10 30 0 17 -4 30 -10 30 -5 0 -10 20 -10 45 l0 45 -40 0 -40 0 0 -40z"/>
<path d="M11860 5235 c0 -33 -4 -45 -15 -45 -10 0 -15 -10 -15 -30 0 -20 5
-30 15 -30 13 0 15 -22 15 -140 0 -154 2 -160 69 -160 28 0 31 3 31 30 0 17
-4 30 -10 30 -6 0 -10 47 -10 120 0 73 4 120 10 120 6 0 10 14 10 30 0 17 -4
30 -10 30 -5 0 -10 20 -10 45 l0 45 -40 0 -40 0 0 -45z"/>
<path d="M12776 5238 c2 -24 6 -96 10 -160 6 -115 7 -118 29 -118 22 0 23 3
29 128 4 70 8 142 11 160 4 32 3 32 -39 32 l-44 0 4 -42z"/>
<path d="M6227 5153 c3 -32 13 -116 22 -188 l16 -130 46 -3 46 -3 6 48 c4 26
9 77 13 113 8 75 18 60 28 -45 12 -114 13 -115 57 -115 35 0 39 2 44 33 5 30
45 335 45 343 0 2 -18 4 -39 4 l-39 0 -7 -82 c-12 -130 -21 -135 -35 -20 l-12
102 -38 0 -38 0 -7 -95 c-4 -52 -11 -97 -15 -100 -4 -3 -11 23 -14 58 -15 139
-15 137 -52 137 l-34 0 7 -57z"/>
<path d="M6590 5020 l0 -190 40 0 40 0 0 190 0 190 -40 0 -40 0 0 -190z"/>
<path d="M7270 4985 l0 -225 40 0 40 0 0 45 c0 42 2 45 19 35 34 -18 68 -12
90 16 19 24 21 40 21 168 0 112 -3 146 -16 164 -17 24 -61 30 -95 12 -13 -7
-19 -7 -19 0 0 5 -18 10 -40 10 l-40 0 0 -225z m125 35 c0 -118 -1 -125 -20
-125 -19 0 -20 8 -23 114 -3 127 0 144 25 139 16 -3 18 -17 18 -128z"/>
<path d="M7530 5020 l0 -190 40 0 39 0 3 152 3 152 33 8 c27 7 32 13 32 38 0
36 -20 39 -50 8 l-20 -22 0 22 c0 19 -6 22 -40 22 l-40 0 0 -190z"/>
<path d="M7740 5182 c-34 -34 -46 -106 -37 -215 9 -109 58 -153 144 -131 52
13 73 47 80 131 14 168 -21 243 -112 243 -38 0 -52 -5 -75 -28z m95 -162 c0
-118 -1 -125 -20 -125 -19 0 -20 8 -23 114 -3 127 0 144 25 139 16 -3 18 -17
18 -128z"/>
<path d="M8157 5199 c-35 -20 -47 -64 -47 -166 0 -124 12 -168 50 -188 84 -43
170 8 170 101 0 21 -5 24 -40 24 -37 0 -40 -2 -40 -29 0 -33 -25 -60 -41 -44
-6 6 -12 35 -13 65 l-1 53 69 3 68 3 -4 71 c-3 62 -7 73 -31 94 -21 18 -40 24
-75 24 -26 0 -55 -5 -65 -11z m89 -73 c10 -42 1 -71 -24 -74 -27 -4 -36 16
-28 63 8 42 42 50 52 11z"/>
<path d="M8397 5190 c-57 -45 -43 -115 37 -177 54 -42 71 -76 54 -107 -14 -26
-38 -7 -38 30 0 34 -1 34 -45 34 -41 0 -45 -2 -45 -24 0 -93 86 -144 170 -101
36 19 50 43 50 90 0 52 -22 87 -80 129 -37 27 -50 42 -50 61 0 18 5 25 20 25
15 0 20 -7 20 -25 0 -23 4 -25 45 -25 42 0 45 2 45 26 0 15 -12 38 -29 55 -25
24 -38 29 -79 29 -34 0 -57 -6 -75 -20z"/>
<path d="M8647 5190 c-57 -45 -43 -115 37 -177 54 -42 71 -76 54 -107 -14 -26
-38 -7 -38 30 0 34 -1 34 -45 34 -41 0 -45 -2 -45 -24 0 -93 86 -144 170 -101
36 19 50 43 50 90 0 52 -22 87 -80 129 -37 27 -50 42 -50 61 0 18 5 25 20 25
15 0 20 -7 20 -25 0 -23 4 -25 45 -25 42 0 45 2 45 26 0 15 -12 38 -29 55 -25
24 -38 29 -79 29 -34 0 -57 -6 -75 -20z"/>
<path d="M8870 5020 l0 -190 40 0 40 0 0 190 0 190 -40 0 -40 0 0 -190z"/>
<path d="M9028 5181 l-33 -29 -3 -115 c-4 -133 9 -177 59 -197 44 -19 109 -7
136 25 21 24 23 36 23 156 l0 131 -29 29 c-42 41 -107 41 -153 0z m100 -151
c2 -119 -4 -147 -32 -137 -13 5 -16 25 -16 125 0 65 3 122 7 126 4 4 14 5 23
4 12 -3 15 -24 18 -118z"/>
<path d="M9260 5020 l0 -190 40 0 39 0 3 158 c3 149 4 157 23 157 19 0 20 -8
23 -157 l3 -158 39 0 40 0 0 168 c0 192 -6 212 -65 212 -27 0 -38 -6 -49 -27
l-15 -28 -1 28 c0 25 -3 27 -40 27 l-40 0 0 -190z"/>
<path d="M9546 5189 c-17 -14 -26 -30 -26 -50 0 -27 2 -29 40 -29 33 0 40 3
40 20 0 13 7 20 20 20 17 0 20 -7 20 -39 0 -38 -1 -40 -50 -56 -59 -20 -80
-51 -80 -117 0 -47 16 -85 41 -101 23 -15 68 0 79 26 8 21 9 21 9 -5 1 -26 4
-28 47 -28 l45 0 -3 166 -3 166 -28 24 c-37 32 -112 34 -151 3z m84 -293 c-8
-8 -15 -6 -26 9 -21 27 -13 104 12 122 18 13 19 10 22 -53 2 -40 -2 -71 -8
-78z"/>
<path d="M9927 5190 c-57 -45 -43 -115 37 -177 54 -42 71 -76 54 -107 -14 -26
-38 -7 -38 30 0 34 -1 34 -45 34 -41 0 -45 -2 -45 -24 0 -93 86 -144 170 -101
36 19 50 43 50 90 0 52 -22 87 -80 129 -37 27 -50 42 -50 61 0 18 5 25 20 25
15 0 20 -7 20 -25 0 -23 4 -25 45 -25 42 0 45 2 45 26 0 15 -12 38 -29 55 -25
24 -38 29 -79 29 -34 0 -57 -6 -75 -20z"/>
<path d="M10437 5199 c-33 -19 -47 -72 -47 -177 0 -55 5 -113 11 -131 27 -77
163 -82 197 -6 7 14 12 44 12 65 0 40 0 40 -40 40 -39 0 -40 -1 -40 -33 0 -18
-6 -42 -14 -52 -12 -16 -16 -17 -30 -6 -13 11 -16 34 -16 116 0 116 4 135 30
135 13 0 20 -11 25 -40 7 -39 8 -40 46 -40 39 0 39 0 39 41 0 61 -42 99 -107
99 -26 0 -56 -5 -66 -11z"/>
<path d="M10679 5181 l-29 -29 0 -131 c0 -121 2 -132 23 -157 18 -20 35 -28
74 -31 45 -5 53 -2 84 25 l34 30 0 132 0 132 -33 29 c-46 41 -111 41 -153 0z
m99 -159 c2 -106 0 -123 -14 -129 -9 -3 -20 0 -25 8 -10 17 -12 232 -2 243 4
4 14 5 23 4 12 -3 15 -25 18 -126z"/>
<path d="M10910 5020 l0 -190 40 0 40 0 0 138 c0 155 5 182 30 182 25 0 30
-27 30 -182 l0 -138 41 0 40 0 -3 169 c-3 149 -5 171 -22 190 -27 30 -70 27
-95 -6 l-20 -28 -1 28 c0 25 -3 27 -40 27 l-40 0 0 -190z"/>
<path d="M11355 5185 c-14 -13 -25 -36 -25 -50 0 -23 4 -25 40 -25 33 0 40 3
40 20 0 30 38 26 46 -5 9 -37 0 -52 -43 -65 -74 -24 -104 -76 -89 -156 14 -72
77 -98 115 -46 l20 27 1 -27 c0 -26 3 -28 40 -28 l40 0 0 161 0 161 -29 29
c-25 24 -37 29 -81 29 -41 0 -56 -5 -75 -25z m105 -209 c0 -54 -19 -94 -38
-82 -18 11 -15 106 4 127 24 27 34 14 34 -45z"/>
<path d="M11615 5186 c-29 -29 -39 -88 -33 -207 4 -81 7 -92 31 -117 23 -23
36 -27 83 -27 49 0 59 4 80 28 18 22 24 40 24 78 l0 49 -40 0 c-40 0 -40 0
-40 -39 0 -39 -20 -68 -40 -56 -6 4 -10 55 -10 131 0 115 1 124 19 124 21 0
31 -19 31 -56 0 -21 4 -24 40 -24 l40 0 0 43 c-1 67 -36 97 -115 97 -35 0 -52
-6 -70 -24z"/>
<path d="M12120 5020 l0 -190 40 0 40 0 0 138 c0 155 5 182 30 182 27 0 30
-19 30 -176 l0 -144 40 0 39 0 3 158 c3 149 4 157 23 157 19 0 20 -8 23 -157
l3 -158 38 0 38 0 6 138 c7 136 0 199 -23 227 -16 20 -84 19 -100 0 -12 -14
-15 -14 -30 0 -24 22 -70 19 -97 -7 l-23 -21 0 21 c0 19 -6 22 -40 22 l-40 0
0 -190z"/>
<path d="M12548 5180 l-30 -30 4 -135 c3 -124 5 -136 26 -157 18 -18 34 -23
78 -23 49 0 59 4 80 28 17 19 24 40 24 68 0 39 0 39 -39 39 -39 0 -40 -1 -43
-37 -2 -30 -7 -38 -23 -38 -18 0 -20 8 -23 63 l-3 62 66 0 65 0 0 70 c0 62 -3
74 -25 95 -19 20 -34 25 -75 25 -44 0 -56 -4 -82 -30z m100 -83 c3 -45 2 -47
-22 -47 -24 0 -26 4 -26 43 0 48 6 59 30 55 10 -2 16 -17 18 -51z"/>
<path d="M10150 4865 c0 -34 1 -35 40 -35 39 0 40 1 40 35 0 34 -1 35 -40 35
-39 0 -40 -1 -40 -35z"/>
<path d="M12770 4865 c0 -35 0 -35 45 -35 45 0 45 0 45 35 0 35 0 35 -45 35
-45 0 -45 0 -45 -35z"/>
<path d="M9861 3351 c-253 -256 -631 -758 -631 -837 0 -29 21 -10 113 99 300
359 617 769 617 799 0 24 -39 0 -99 -61z"/>
<path d="M10120 3235 c0 -17 29 -46 88 -86 23 -17 42 -31 42 -33 0 -2 -34 -20
-76 -40 -74 -37 -164 -111 -164 -134 0 -19 38 -52 60 -52 11 0 39 12 63 27 81
51 217 158 217 170 0 17 -75 79 -151 124 -72 43 -79 45 -79 24z"/>
<path d="M9150 3208 c-123 -85 -210 -153 -210 -164 0 -21 195 -164 223 -164 4
0 7 9 7 19 0 18 -40 55 -104 95 l-30 19 40 19 c76 38 193 120 199 140 4 10 0
30 -9 43 -22 34 -60 32 -116 -7z"/>
</g>
</svg>
